<svg aria-hidden="true" style="position: absolute; width: 0; height: 0; overflow: hidden;" version="1.1" xmlns="http://www.w3.org/2000/svg" xmlns:xlink="http://www.w3.org/1999/xlink">
<defs>
<symbol id="icon-search" viewBox="0 0 26 28">
<path d="M18 13c0-3.859-3.141-7-7-7s-7 3.141-7 7 3.141 7 7 7 7-3.141 7-7zM26 26c0 1.094-0.906 2-2 2-0.531 0-1.047-0.219-1.406-0.594l-5.359-5.344c-1.828 1.266-4.016 1.937-6.234 1.937-6.078 0-11-4.922-11-11s4.922-11 11-11 11 4.922 11 11c0 2.219-0.672 4.406-1.937 6.234l5.359 5.359c0.359 0.359 0.578 0.875 0.578 1.406z"></path>
</symbol>
<symbol id="icon-heart" viewBox="0 0 28 28">
<path d="M14 26c-0.25 0-0.5-0.094-0.688-0.281l-9.75-9.406c-0.125-0.109-3.563-3.25-3.563-7 0-4.578 2.797-7.313 7.469-7.313 2.734 0 5.297 2.156 6.531 3.375 1.234-1.219 3.797-3.375 6.531-3.375 4.672 0 7.469 2.734 7.469 7.313 0 3.75-3.437 6.891-3.578 7.031l-9.734 9.375c-0.187 0.187-0.438 0.281-0.688 0.281z"></path>
</symbol>
<symbol id="icon-star" viewBox="0 0 26 28">
<path d="M26 10.109c0 0.281-0.203 0.547-0.406 0.75l-5.672 5.531 1.344 7.812c0.016 0.109 0.016 0.203 0.016 0.313 0 0.406-0.187 0.781-0.641 0.781-0.219 0-0.438-0.078-0.625-0.187l-7.016-3.687-7.016 3.687c-0.203 0.109-0.406 0.187-0.625 0.187-0.453 0-0.656-0.375-0.656-0.781 0-0.109 0.016-0.203 0.031-0.313l1.344-7.812-5.688-5.531c-0.187-0.203-0.391-0.469-0.391-0.75 0-0.469 0.484-0.656 0.875-0.719l7.844-1.141 3.516-7.109c0.141-0.297 0.406-0.641 0.766-0.641s0.625 0.344 0.766 0.641l3.516 7.109 7.844 1.141c0.375 0.063 0.875 0.25 0.875 0.719z"></path>
</symbol>
<symbol id="icon-star-o" viewBox="0 0 26 28">
<path d="M17.766 15.687l4.781-4.641-6.594-0.969-2.953-5.969-2.953 5.969-6.594 0.969 4.781 4.641-1.141 6.578 5.906-3.109 5.891 3.109zM26 10.109c0 0.281-0.203 0.547-0.406 0.75l-5.672 5.531 1.344 7.812c0.016 0.109 0.016 0.203 0.016 0.313 0 0.422-0.187 0.781-0.641 0.781-0.219 0-0.438-0.078-0.625-0.187l-7.016-3.687-7.016 3.687c-0.203 0.109-0.406 0.187-0.625 0.187-0.453 0-0.656-0.375-0.656-0.781 0-0.109 0.016-0.203 0.031-0.313l1.344-7.812-5.688-5.531c-0.187-0.203-0.391-0.469-0.391-0.75 0-0.469 0.484-0.656 0.875-0.719l7.844-1.141 3.516-7.109c0.141-0.297 0.406-0.641 0.766-0.641s0.625 0.344 0.766 0.641l3.516 7.109 7.844 1.141c0.375 0.063 0.875 0.25 0.875 0.719z"></path>
</symbol>
<symbol id="icon-close" viewBox="0 0 22 28">
<path d="M20.281 20.656c0 0.391-0.156 0.781-0.438 1.062l-2.125 2.125c-0.281 0.281-0.672 0.438-1.062 0.438s-0.781-0.156-1.062-0.438l-4.594-4.594-4.594 4.594c-0.281 0.281-0.672 0.438-1.062 0.438s-0.781-0.156-1.062-0.438l-2.125-2.125c-0.281-0.281-0.438-0.672-0.438-1.062s0.156-0.781 0.438-1.062l4.594-4.594-4.594-4.594c-0.281-0.281-0.438-0.672-0.438-1.062s0.156-0.781 0.438-1.062l2.125-2.125c0.281-0.281 0.672-0.438 1.062-0.438s0.781 0.156 1.062 0.438l4.594 4.594 4.594-4.594c0.281-0.281 0.672-0.438 1.062-0.438s0.781 0.156 1.062 0.438l2.125 2.125c0.281 0.281 0.438 0.672 0.438 1.062s-0.156 0.781-0.438 1.062l-4.594 4.594 4.594 4.594c0.281 0.281 0.438 0.672 0.438 1.062z"></path>
</symbol>
<symbol id="icon-arrow-up" viewBox="0 0 26 28">
<path d="M25.172 15.172c0 0.531-0.219 1.031-0.578 1.406l-1.172 1.172c-0.375 0.375-0.891 0.594-1.422 0.594s-1.047-0.219-1.406-0.594l-4.594-4.578v11c0 1.125-0.938 1.828-2 1.828h-2c-1.062 0-2-0.703-2-1.828v-11l-4.594 4.578c-0.359 0.375-0.875 0.594-1.406 0.594s-1.047-0.219-1.406-0.594l-1.172-1.172c-0.375-0.375-0.594-0.875-0.594-1.406s0.219-1.047 0.594-1.422l10.172-10.172c0.359-0.375 0.875-0.578 1.406-0.578s1.047 0.203 1.422 0.578l10.172 10.172c0.359 0.375 0.578 0.891 0.578 1.422z"></path>
</symbol>
<symbol id="icon-heart-o" viewBox="0 0 28 28">
<path d="M26 9.312c0-4.391-2.969-5.313-5.469-5.313-2.328 0-4.953 2.516-5.766 3.484-0.375 0.453-1.156 0.453-1.531 0-0.812-0.969-3.437-3.484-5.766-3.484-2.5 0-5.469 0.922-5.469 5.313 0 2.859 2.891 5.516 2.922 5.547l9.078 8.75 9.063-8.734c0.047-0.047 2.938-2.703 2.938-5.563zM28 9.312c0 3.75-3.437 6.891-3.578 7.031l-9.734 9.375c-0.187 0.187-0.438 0.281-0.688 0.281s-0.5-0.094-0.688-0.281l-9.75-9.406c-0.125-0.109-3.563-3.25-3.563-7 0-4.578 2.797-7.313 7.469-7.313 2.734 0 5.297 2.156 6.531 3.375 1.234-1.219 3.797-3.375 6.531-3.375 4.672 0 7.469 2.734 7.469 7.313z"></path>
</symbol>
<symbol id="icon-twitter" viewBox="0 0 26 28">
<path d="M25.312 6.375c-0.688 1-1.547 1.891-2.531 2.609 0.016 0.219 0.016 0.438 0.016 0.656 0 6.672-5.078 14.359-14.359 14.359-2.859 0-5.516-0.828-7.75-2.266 0.406 0.047 0.797 0.063 1.219 0.063 2.359 0 4.531-0.797 6.266-2.156-2.219-0.047-4.078-1.5-4.719-3.5 0.313 0.047 0.625 0.078 0.953 0.078 0.453 0 0.906-0.063 1.328-0.172-2.312-0.469-4.047-2.5-4.047-4.953v-0.063c0.672 0.375 1.453 0.609 2.281 0.641-1.359-0.906-2.25-2.453-2.25-4.203 0-0.938 0.25-1.797 0.688-2.547 2.484 3.062 6.219 5.063 10.406 5.281-0.078-0.375-0.125-0.766-0.125-1.156 0-2.781 2.25-5.047 5.047-5.047 1.453 0 2.766 0.609 3.687 1.594 1.141-0.219 2.234-0.641 3.203-1.219-0.375 1.172-1.172 2.156-2.219 2.781 1.016-0.109 2-0.391 2.906-0.781z"></path>
</symbol>
<symbol id="icon-facebook" viewBox="0 0 16 28">
<path d="M14.984 0.187v4.125h-2.453c-1.922 0-2.281 0.922-2.281 2.25v2.953h4.578l-0.609 4.625h-3.969v11.859h-4.781v-11.859h-3.984v-4.625h3.984v-3.406c0-3.953 2.422-6.109 5.953-6.109 1.687 0 3.141 0.125 3.563 0.187z"></path>
</symbol>
<symbol id="icon-star-half-empty" viewBox="0 0 26 28">
<path d="M18.531 14.953l4.016-3.906-6.594-0.969-0.469-0.938-2.484-5.031v15.047l0.922 0.484 4.969 2.625-0.938-5.547-0.187-1.031zM25.594 10.859l-5.672 5.531 1.344 7.812c0.109 0.688-0.141 1.094-0.625 1.094-0.172 0-0.391-0.063-0.625-0.187l-7.016-3.687-7.016 3.687c-0.234 0.125-0.453 0.187-0.625 0.187-0.484 0-0.734-0.406-0.625-1.094l1.344-7.812-5.688-5.531c-0.672-0.672-0.453-1.328 0.484-1.469l7.844-1.141 3.516-7.109c0.203-0.422 0.484-0.641 0.766-0.641v0c0.281 0 0.547 0.219 0.766 0.641l3.516 7.109 7.844 1.141c0.938 0.141 1.156 0.797 0.469 1.469z"></path>
</symbol>
<symbol id="icon-youtube" viewBox="0 0 24 28">
<path d="M15.172 19.437v3.297c0 0.703-0.203 1.047-0.609 1.047-0.234 0-0.469-0.109-0.703-0.344v-4.703c0.234-0.234 0.469-0.344 0.703-0.344 0.406 0 0.609 0.359 0.609 1.047zM20.453 19.453v0.719h-1.406v-0.719c0-0.703 0.234-1.062 0.703-1.062s0.703 0.359 0.703 1.062zM5.359 16.047h1.672v-1.469h-4.875v1.469h1.641v8.891h1.563v-8.891zM9.859 24.938h1.391v-7.719h-1.391v5.906c-0.313 0.438-0.609 0.656-0.891 0.656-0.187 0-0.297-0.109-0.328-0.328-0.016-0.047-0.016-0.219-0.016-0.547v-5.688h-1.391v6.109c0 0.547 0.047 0.906 0.125 1.141 0.125 0.391 0.453 0.578 0.906 0.578 0.5 0 1.031-0.313 1.594-0.953v0.844zM16.562 22.625v-3.078c0-0.719-0.031-1.234-0.141-1.547-0.172-0.578-0.562-0.875-1.109-0.875-0.516 0-1 0.281-1.453 0.844v-3.391h-1.391v10.359h1.391v-0.75c0.469 0.578 0.953 0.859 1.453 0.859 0.547 0 0.938-0.297 1.109-0.859 0.109-0.328 0.141-0.844 0.141-1.563zM21.844 22.469v-0.203h-1.422c0 0.562-0.016 0.875-0.031 0.953-0.078 0.375-0.281 0.562-0.625 0.562-0.484 0-0.719-0.359-0.719-1.078v-1.359h2.797v-1.609c0-0.828-0.141-1.422-0.422-1.813-0.406-0.531-0.953-0.797-1.656-0.797-0.719 0-1.266 0.266-1.672 0.797-0.297 0.391-0.438 0.984-0.438 1.813v2.703c0 0.828 0.156 1.437 0.453 1.813 0.406 0.531 0.953 0.797 1.687 0.797s1.313-0.281 1.687-0.828c0.172-0.25 0.297-0.531 0.328-0.844 0.031-0.141 0.031-0.453 0.031-0.906zM12.344 8.203v-3.281c0-0.719-0.203-1.078-0.672-1.078-0.453 0-0.672 0.359-0.672 1.078v3.281c0 0.719 0.219 1.094 0.672 1.094 0.469 0 0.672-0.375 0.672-1.094zM23.578 19.938c0 1.797-0.016 3.719-0.406 5.469-0.297 1.234-1.297 2.141-2.5 2.266-2.875 0.328-5.781 0.328-8.672 0.328s-5.797 0-8.672-0.328c-1.203-0.125-2.219-1.031-2.5-2.266-0.406-1.75-0.406-3.672-0.406-5.469v0c0-1.813 0.016-3.719 0.406-5.469 0.297-1.234 1.297-2.141 2.516-2.281 2.859-0.313 5.766-0.313 8.656-0.313s5.797 0 8.672 0.313c1.203 0.141 2.219 1.047 2.5 2.281 0.406 1.75 0.406 3.656 0.406 5.469zM7.984 0h1.594l-1.891 6.234v4.234h-1.563v-4.234c-0.141-0.766-0.453-1.859-0.953-3.313-0.344-0.969-0.688-1.953-1.016-2.922h1.656l1.109 4.109zM13.766 5.203v2.734c0 0.828-0.141 1.453-0.438 1.844-0.391 0.531-0.938 0.797-1.656 0.797-0.703 0-1.25-0.266-1.641-0.797-0.297-0.406-0.438-1.016-0.438-1.844v-2.734c0-0.828 0.141-1.437 0.438-1.828 0.391-0.531 0.938-0.797 1.641-0.797 0.719 0 1.266 0.266 1.656 0.797 0.297 0.391 0.438 1 0.438 1.828zM19 2.672v7.797h-1.422v-0.859c-0.562 0.656-1.094 0.969-1.609 0.969-0.453 0-0.781-0.187-0.922-0.578-0.078-0.234-0.125-0.609-0.125-1.172v-6.156h1.422v5.734c0 0.328 0 0.516 0.016 0.547 0.031 0.219 0.141 0.344 0.328 0.344 0.281 0 0.578-0.219 0.891-0.672v-5.953h1.422z"></path>
</symbol>
<symbol id="icon-instagram" viewBox="0 0 24 28">
<path d="M16 14c0-2.203-1.797-4-4-4s-4 1.797-4 4 1.797 4 4 4 4-1.797 4-4zM18.156 14c0 3.406-2.75 6.156-6.156 6.156s-6.156-2.75-6.156-6.156 2.75-6.156 6.156-6.156 6.156 2.75 6.156 6.156zM19.844 7.594c0 0.797-0.641 1.437-1.437 1.437s-1.437-0.641-1.437-1.437 0.641-1.437 1.437-1.437 1.437 0.641 1.437 1.437zM12 4.156c-1.75 0-5.5-0.141-7.078 0.484-0.547 0.219-0.953 0.484-1.375 0.906s-0.688 0.828-0.906 1.375c-0.625 1.578-0.484 5.328-0.484 7.078s-0.141 5.5 0.484 7.078c0.219 0.547 0.484 0.953 0.906 1.375s0.828 0.688 1.375 0.906c1.578 0.625 5.328 0.484 7.078 0.484s5.5 0.141 7.078-0.484c0.547-0.219 0.953-0.484 1.375-0.906s0.688-0.828 0.906-1.375c0.625-1.578 0.484-5.328 0.484-7.078s0.141-5.5-0.484-7.078c-0.219-0.547-0.484-0.953-0.906-1.375s-0.828-0.688-1.375-0.906c-1.578-0.625-5.328-0.484-7.078-0.484zM24 14c0 1.656 0.016 3.297-0.078 4.953-0.094 1.922-0.531 3.625-1.937 5.031s-3.109 1.844-5.031 1.937c-1.656 0.094-3.297 0.078-4.953 0.078s-3.297 0.016-4.953-0.078c-1.922-0.094-3.625-0.531-5.031-1.937s-1.844-3.109-1.937-5.031c-0.094-1.656-0.078-3.297-0.078-4.953s-0.016-3.297 0.078-4.953c0.094-1.922 0.531-3.625 1.937-5.031s3.109-1.844 5.031-1.937c1.656-0.094 3.297-0.078 4.953-0.078s3.297-0.016 4.953 0.078c1.922 0.094 3.625 0.531 5.031 1.937s1.844 3.109 1.937 5.031c0.094 1.656 0.078 3.297 0.078 4.953z"></path>
</symbol>
<symbol id="icon-keyboard_arrow_down" viewBox="0 0 24 24">
<path d="M7.406 8.578l4.594 4.594 4.594-4.594 1.406 1.406-6 6-6-6z"></path>
</symbol>
<symbol id="icon-keyboard_arrow_left" viewBox="0 0 24 24">
<path d="M15.422 16.594l-1.406 1.406-6-6 6-6 1.406 1.406-4.594 4.594z"></path>
</symbol>
<symbol id="icon-keyboard_arrow_right" viewBox="0 0 24 24">
<path d="M8.578 16.594l4.594-4.594-4.594-4.594 1.406-1.406 6 6-6 6z"></path>
</symbol>
<symbol id="icon-keyboard_arrow_up" viewBox="0 0 24 24">
<path d="M7.406 15.422l-1.406-1.406 6-6 6 6-1.406 1.406-4.594-4.594z"></path>
</symbol>
<symbol id="icon-arrow_upward" viewBox="0 0 24 24">
<path d="M3.984 12l8.016-8.016 8.016 8.016-1.453 1.406-5.578-5.578v12.188h-1.969v-12.188l-5.625 5.578z"></path>
</symbol>
<symbol id="icon-thumb_down_alt" viewBox="0 0 24 24">
<path d="M2.156 11.109l2.672-6.141q0.609-0.984 1.734-0.984h8.109q0.984 0 1.664 0.68t0.68 1.664v7.828q0 0.844-0.609 1.453l-6.422 6.375-0.422-0.469q-0.563-0.563-0.891-1.219-0.141-0.328-0.094-0.656l0.938-4.641h-5.531q-0.797 0-1.383-0.609t-0.586-1.406v-1.078q0-0.469 0.141-0.797zM21.984 3.984v11.016h-1.969q-0.422 0-0.727-0.281t-0.305-0.703v-9q0-0.422 0.305-0.727t0.727-0.305h1.969z"></path>
</symbol>
<symbol id="icon-thumb_up_alt" viewBox="0 0 24 24">
<path d="M21.844 12.891l-2.672 6.141q-0.609 0.984-1.734 0.984h-8.109q-0.938 0-1.641-0.703t-0.703-1.641v-7.828q0-0.844 0.609-1.453l6.422-6.375 0.422 0.469q0.563 0.563 0.891 1.219 0.141 0.328 0.094 0.656l-0.938 4.641h5.531q0.797 0 1.383 0.609t0.586 1.406v1.078q0 0.422-0.141 0.797zM2.016 20.016v-11.016h1.969q0.422 0 0.727 0.281t0.305 0.703v9q0 0.422-0.305 0.727t-0.727 0.305h-1.969z"></path>
</symbol>
<symbol id="icon-double_arrow" viewBox="0 0 24 24">
<path d="M8.484 5.016l5.016 6.984-5.016 6.984h-4.5l5.016-6.984-5.016-6.984h4.5zM15.516 5.016l4.969 6.984-4.969 6.984h-4.5l4.969-6.984-4.969-6.984h4.5z"></path>
</symbol>
<symbol id="icon-shopping-bag" viewBox="0 0 24 24">
<path d="M19 5h-14l1.5-2h11zM21.794 5.392l-2.994-3.992c-0.196-0.261-0.494-0.399-0.8-0.4h-12c-0.326 0-0.616 0.156-0.8 0.4l-2.994 3.992c-0.043 0.056-0.081 0.117-0.111 0.182-0.065 0.137-0.096 0.283-0.095 0.426v14c0 0.828 0.337 1.58 0.879 2.121s1.293 0.879 2.121 0.879h14c0.828 0 1.58-0.337 2.121-0.879s0.879-1.293 0.879-2.121v-14c0-0.219-0.071-0.422-0.189-0.585-0.004-0.005-0.007-0.010-0.011-0.015zM4 7h16v13c0 0.276-0.111 0.525-0.293 0.707s-0.431 0.293-0.707 0.293h-14c-0.276 0-0.525-0.111-0.707-0.293s-0.293-0.431-0.293-0.707zM15 10c0 0.829-0.335 1.577-0.879 2.121s-1.292 0.879-2.121 0.879-1.577-0.335-2.121-0.879-0.879-1.292-0.879-2.121c0-0.552-0.448-1-1-1s-1 0.448-1 1c0 1.38 0.561 2.632 1.464 3.536s2.156 1.464 3.536 1.464 2.632-0.561 3.536-1.464 1.464-2.156 1.464-3.536c0-0.552-0.448-1-1-1s-1 0.448-1 1z"></path>
</symbol>
<symbol id="icon-circle-up" viewBox="0 0 32 32">
<path d="M0 16c0 8.837 7.163 16 16 16s16-7.163 16-16-7.163-16-16-16-16 7.163-16 16zM29 16c0 7.18-5.82 13-13 13s-13-5.82-13-13 5.82-13 13-13 13 5.82 13 13z"></path>
<path d="M22.086 20.914l2.829-2.829-8.914-8.914-8.914 8.914 2.828 2.828 6.086-6.086z"></path>
</symbol>
<symbol id="icon-circle-right" viewBox="0 0 32 32">
<path d="M16 0c-8.837 0-16 7.163-16 16s7.163 16 16 16 16-7.163 16-16-7.163-16-16-16zM16 29c-7.18 0-13-5.82-13-13s5.82-13 13-13 13 5.82 13 13-5.82 13-13 13z"></path>
<path d="M11.086 22.086l2.829 2.829 8.914-8.914-8.914-8.914-2.828 2.828 6.086 6.086z"></path>
</symbol>
<symbol id="icon-circle-down" viewBox="0 0 32 32">
<path d="M32 16c0-8.837-7.163-16-16-16s-16 7.163-16 16 7.163 16 16 16 16-7.163 16-16zM3 16c0-7.18 5.82-13 13-13s13 5.82 13 13-5.82 13-13 13-13-5.82-13-13z"></path>
<path d="M9.914 11.086l-2.829 2.829 8.914 8.914 8.914-8.914-2.828-2.828-6.086 6.086z"></path>
</symbol>
<symbol id="icon-circle-left" viewBox="0 0 32 32">
<path d="M16 32c8.837 0 16-7.163 16-16s-7.163-16-16-16-16 7.163-16 16 7.163 16 16 16zM16 3c7.18 0 13 5.82 13 13s-5.82 13-13 13-13-5.82-13-13 5.82-13 13-13z"></path>
<path d="M20.914 9.914l-2.829-2.829-8.914 8.914 8.914 8.914 2.828-2.828-6.086-6.086z"></path>
</symbol>
<symbol id="icon-cross" viewBox="0 0 20 20">
<path d="M14.348 14.849c-0.469 0.469-1.229 0.469-1.697 0l-2.651-3.030-2.651 3.029c-0.469 0.469-1.229 0.469-1.697 0-0.469-0.469-0.469-1.229 0-1.697l2.758-3.15-2.759-3.152c-0.469-0.469-0.469-1.228 0-1.697s1.228-0.469 1.697 0l2.652 3.031 2.651-3.031c0.469-0.469 1.228-0.469 1.697 0s0.469 1.229 0 1.697l-2.758 3.152 2.758 3.15c0.469 0.469 0.469 1.229 0 1.698z"></path>
</symbol>
</defs>
</svg>
